<svg xmlns="http://www.w3.org/2000/svg" viewBox="0 0 398 77.5"><defs><style>.cls-1{fill:#fff;}.cls-2{fill:#fcb813;}</style></defs><title>Asset 9</title><g id="Layer_2" data-name="Layer 2"><g id="Layer_1-2" data-name="Layer 1"><path class="cls-1" d="M68,33.85A34.1,34.1,0,0,0,38.51,0V12.25A22.05,22.05,0,0,1,54.82,40.84L65.4,47A34.19,34.19,0,0,0,68,33.85"/><path class="cls-2" d="M34,55.91a22.08,22.08,0,0,1-4.51-43.66V0A34.14,34.14,0,1,0,60.84,54.8L50.25,48.66A21.84,21.84,0,0,1,34,55.91"/><path class="cls-1" d="M120,9.31a17.94,17.94,0,0,1,11.79,3.86,12,12,0,0,1,4.65,9.73A12.39,12.39,0,0,1,130.14,34a16.16,16.16,0,0,1,6.25,5.55,13.78,13.78,0,0,1,2.24,7.72,14.14,14.14,0,0,1-5.29,11.26A19.84,19.84,0,0,1,120.12,63a19.2,19.2,0,0,1-13-4.5A14.24,14.24,0,0,1,102,47.27a13.86,13.86,0,0,1,2.32-7.72A16.16,16.16,0,0,1,110.58,34q-6.49-4-6.49-11.1a12.16,12.16,0,0,1,4.57-9.73A17.28,17.28,0,0,1,120.2,9.31Zm8.74,37a7.66,7.66,0,0,0-2.41-5.79,9,9,0,0,0-12.11,0,7.65,7.65,0,0,0-2.41,5.79,8,8,0,0,0,2.41,5.87,8.39,8.39,0,0,0,6.17,2.41,8.23,8.23,0,0,0,8.42-8.36ZM127.1,24a6,6,0,0,0-1.92-4.58,7.08,7.08,0,0,0-9.54,0A6,6,0,0,0,113.71,24a5.8,5.8,0,0,0,1.92,4.42,7.19,7.19,0,0,0,9.54-.08,6,6,0,0,0,1.92-4.5Z"/><path class="cls-1" d="M152.67,61.9h-9.78V23.39h9.78v3.78c2.49-3.3,6.09-4.9,10.82-4.9a13.64,13.64,0,0,1,10.58,4.34c2.65,2.9,4,6.84,4,11.9V61.82H168.3V39.95a8.76,8.76,0,0,0-2.16-6.27,8.21,8.21,0,0,0-11.38-.08,9.09,9.09,0,0,0-2.08,6.27Z"/><path class="cls-1" d="M221.62,6.58V61.9h-9.86V57.72A14.57,14.57,0,0,1,200.05,63,17,17,0,0,1,187,57.24c-3.53-3.86-5.29-8.76-5.29-14.63S183.46,31.83,187,28a17.18,17.18,0,0,1,13.23-5.79,14.83,14.83,0,0,1,11.71,5V6.5ZM201.82,53.7A9.28,9.28,0,0,0,209,50.4a11.57,11.57,0,0,0,2.89-8,11.57,11.57,0,0,0-2.89-8,9.79,9.79,0,0,0-14.51,0,11.57,11.57,0,0,0-2.89,8,11.57,11.57,0,0,0,2.89,8,9.42,9.42,0,0,0,7.38,3.22Z"/><path class="cls-1" d="M238.37,23.31v4.18a14.57,14.57,0,0,1,11.71-5.31A17.13,17.13,0,0,1,263.23,28a20.71,20.71,0,0,1,5.29,14.55,20.71,20.71,0,0,1-5.29,14.55A17.18,17.18,0,0,1,250,62.87a14.83,14.83,0,0,1-11.71-5V77.5h-9.78V23.23Zm10.18,8.2a9.21,9.21,0,0,0-7.22,3.22,11.58,11.58,0,0,0-2.89,8,11.57,11.57,0,0,0,2.89,8,9.79,9.79,0,0,0,14.51,0,11.57,11.57,0,0,0,2.89-8,11.58,11.58,0,0,0-2.89-8,9.33,9.33,0,0,0-7.3-3.3Z"/><path class="cls-1" d="M275.89,56.92a19.87,19.87,0,0,1-5.77-14.39A20.19,20.19,0,0,1,275.89,28,18.83,18.83,0,0,1,290,22a19.13,19.13,0,0,1,14.19,6,19.93,19.93,0,0,1,5.85,14.47,19.62,19.62,0,0,1-5.85,14.39A19.36,19.36,0,0,1,290,62.87,19,19,0,0,1,275.89,56.92ZM290,53.7a9.28,9.28,0,0,0,7.22-3.3,11.57,11.57,0,0,0,2.89-8,11.57,11.57,0,0,0-2.89-8,9.79,9.79,0,0,0-14.51,0,11.57,11.57,0,0,0-2.89,8,11.57,11.57,0,0,0,2.89,8,9.42,9.42,0,0,0,7.38,3.22Z"/><path class="cls-1" d="M314.94,16.31a5.59,5.59,0,0,1-1.68-4.1,5.54,5.54,0,0,1,1.68-4,5.7,5.7,0,0,1,8.1,0,5.54,5.54,0,0,1,1.68,4,5.59,5.59,0,0,1-1.68,4.1,5.7,5.7,0,0,1-8.1,0Zm9,45.43h-9.78V23.23h9.78Z"/><path class="cls-1" d="M340.35,61.9h-9.78V23.39h9.78v3.78c2.48-3.3,6.09-4.9,10.82-4.9a13.64,13.64,0,0,1,10.58,4.34c2.65,2.9,4,6.84,4,11.9V61.82H356V39.95a8.76,8.76,0,0,0-2.16-6.27,8.21,8.21,0,0,0-11.39-.08,9.09,9.09,0,0,0-2.08,6.27Z"/><path class="cls-1" d="M368,23.23h6.82v-10h9.78v10H395v8.68H384.69V48.23c0,3.62,1.44,5.39,4.41,5.39a5.7,5.7,0,0,0,4.49-1.93L398,59a14.47,14.47,0,0,1-10.5,3.86c-3.93,0-7.06-1.21-9.3-3.7s-3.37-6-3.37-10.61V31.91h-6.74Z"/></g></g></svg>